<svg xmlns="http://www.w3.org/2000/svg" width="20" height="20" viewBox="0 0 20 20" fill="none">
  <path d="M8.19893 8.98374L4.55639 12.6147H2.27931C1.58211 12.6147 1.02574 13.1963 1.05657 13.8928C1.07473 14.303 1.2974 14.6768 1.6495 14.8881L3.84935 16.2083L5.16159 18.4147C5.37537 18.7741 5.77198 18.9841 6.18942 18.9588C6.78079 18.9229 7.24133 18.4317 7.239 17.8392L7.22985 15.5178L10.9888 11.7709L15.3885 17.5202C15.8495 18.0897 16.7564 18.0746 17.3443 17.4885C17.7947 17.0395 17.9232 16.3796 17.6572 15.8809L14.3003 8.46983L18.3781 4.40495C18.9767 3.80832 19.4276 2.72514 18.3368 1.63473C17.3246 0.61637 16.2095 0.998602 15.6382 1.56811L11.5105 5.68271L4.07576 2.33649C3.57547 2.07132 2.91347 2.19939 2.46306 2.64836C1.87361 3.23595 1.86 4.13992 2.43132 4.59794L8.19893 8.98374Z" stroke="current" stroke-width="2"/>
</svg>