<svg width="20" height="20" viewBox="0 0 20 20" fill="none" xmlns="http://www.w3.org/2000/svg">
<path d="M7.82049 18.1C8.40178 18.6601 9.16535 19 10.0016 19C10.8379 19 11.6015 18.6601 12.1828 18.1M2.00016 4.4379C1.98833 3.13169 2.63339 1.91192 3.67547 1.27M17.9998 4.43791C18.0117 3.1317 17.3666 1.91193 16.3245 1.27M14.9479 6.4C14.9479 4.96783 14.4268 3.59432 13.4992 2.58162C12.5716 1.56893 11.3135 1 10.0016 1C8.68981 1 7.43171 1.56893 6.50411 2.58162C5.57651 3.59432 5.05539 4.96783 5.05539 6.4C5.05539 9.18117 4.41276 11.0854 3.69489 12.3449C3.08936 13.4073 2.78659 13.9385 2.79769 14.0867C2.80998 14.2508 2.84182 14.3133 2.96294 14.4114C3.07232 14.5 3.5654 14.5 4.55157 14.5H15.4517C16.4379 14.5 16.931 14.5 17.0403 14.4114C17.1615 14.3133 17.1933 14.2508 17.2056 14.0867C17.2167 13.9385 16.9139 13.4073 16.3084 12.3449C15.5905 11.0854 14.9479 9.18117 14.9479 6.4Z" stroke="#6F6969" stroke-width="2" stroke-linecap="round" stroke-linejoin="round"/>
</svg>
