<svg xmlns="http://www.w3.org/2000/svg" width="20" height="20" viewBox="0 0 20 20" fill="none">
  <path d="M11.8248 14.1707H16.8086C18.0406 14.1707 18.6565 14.1707 18.7932 14.0843C18.9445 13.9886 18.9843 13.9276 18.9996 13.7675C19.0135 13.6229 18.6353 13.1047 17.8788 12.0682C16.982 10.8394 16.1792 8.98163 16.1792 6.26829C16.1792 4.87105 15.5282 3.53104 14.3693 2.54305C13.2105 1.55505 11.6388 1 10 1C8.36118 1 6.78948 1.55505 5.63066 2.54305C4.47184 3.53104 3.82083 4.87105 3.82083 6.26829C3.82083 8.98163 3.01802 10.8394 2.12121 12.0682C1.36474 13.1047 0.986499 13.6229 1.00037 13.7675C1.01572 13.9276 1.0555 13.9886 1.2068 14.0843C1.34345 14.1707 1.95944 14.1707 3.19143 14.1707H8.17517M11.8248 14.1707C13.3778 15.8528 12.9952 17.3949 12.25 18.122C11.4579 18.8948 10.45 19 10 19C9.55 19 8.51486 18.8682 7.75 18.122C6.85 17.2439 6.60418 15.8528 8.17517 14.1707M11.8248 14.1707H8.17517" stroke="#FF96AF" stroke-width="2" stroke-linecap="round" stroke-linejoin="round"/>
</svg>