<svg xmlns="http://www.w3.org/2000/svg" width="17" height="19" viewBox="0 0 17 19" fill="none">
  <path d="M16 7.9H1M11.8333 1.5V4.7M5.16667 1.5V4.7M5 17.5H12C13.4001 17.5 14.1002 17.5 14.635 17.2384C15.1054 17.0083 15.4878 16.6412 15.7275 16.1896C16 15.6762 16 15.0041 16 13.66V6.94C16 5.59587 16 4.92381 15.7275 4.41042C15.4878 3.95883 15.1054 3.59168 14.635 3.36158C14.1002 3.1 13.4001 3.1 12 3.1H5C3.59987 3.1 2.8998 3.1 2.36502 3.36158C1.89462 3.59168 1.51217 3.95883 1.27248 4.41042C1 4.92381 1 5.59587 1 6.94V13.66C1 15.0041 1 15.6762 1.27248 16.1896C1.51217 16.6412 1.89462 17.0083 2.36502 17.2384C2.8998 17.5 3.59987 17.5 5 17.5Z" stroke="#B1A7A7" stroke-width="2" stroke-linecap="round" stroke-linejoin="round"/>
</svg>