<svg xmlns="http://www.w3.org/2000/svg" width="18" height="17" viewBox="0 0 18 17" fill="none">
  <path d="M1 6.03465C1 5.75808 1 5.6198 1.01169 5.50332C1.12448 4.37995 2.02501 3.49126 3.16337 3.37996C3.2814 3.36842 3.42909 3.36842 3.72447 3.36842C3.83828 3.36842 3.89519 3.36842 3.94351 3.36553C4.56049 3.32866 5.10076 2.94438 5.33132 2.37842C5.34937 2.3341 5.36625 2.28414 5.4 2.18421C5.43375 2.08429 5.45063 2.03432 5.46868 1.99C5.69924 1.42404 6.23951 1.03976 6.85649 1.00289C6.90481 1 6.95818 1 7.06491 1H10.9351C11.0418 1 11.0952 1 11.1435 1.00289C11.7605 1.03976 12.3008 1.42404 12.5313 1.99C12.5494 2.03432 12.5662 2.08429 12.6 2.18421C12.6338 2.28414 12.6506 2.3341 12.6687 2.37842C12.8992 2.94438 13.4395 3.32866 14.0565 3.36553C14.1048 3.36842 14.1617 3.36842 14.2755 3.36842C14.5709 3.36842 14.7186 3.36842 14.8366 3.37996C15.975 3.49126 16.8755 4.37995 16.9883 5.50332C17 5.6198 17 5.75808 17 6.03465V12.2105C17 13.537 17 14.2002 16.7384 14.7068C16.5083 15.1525 16.1412 15.5148 15.6896 15.7419C15.1762 16 14.5041 16 13.16 16H4.84C3.49587 16 2.82381 16 2.31042 15.7419C1.85883 15.5148 1.49168 15.1525 1.26158 14.7068C1 14.2002 1 13.537 1 12.2105V6.03465Z" stroke="white" stroke-width="2" stroke-linecap="round" stroke-linejoin="round"/>
  <path d="M9 12.4474C10.7673 12.4474 12.2 11.0335 12.2 9.28947C12.2 7.54542 10.7673 6.13158 9 6.13158C7.23269 6.13158 5.8 7.54542 5.8 9.28947C5.8 11.0335 7.23269 12.4474 9 12.4474Z" stroke="white" stroke-width="2" stroke-linecap="round" stroke-linejoin="round"/>
</svg>