<svg xmlns="http://www.w3.org/2000/svg" width="19" height="19" viewBox="0 0 19 19" fill="none">
  <path d="M15.45 7.72222V4.34444C15.45 3.3488 15.45 2.85097 15.2647 2.47068C15.1017 2.13617 14.8417 1.86421 14.5218 1.69377C14.1581 1.5 13.6821 1.5 12.73 1.5H6.27C5.31791 1.5 4.84187 1.5 4.47822 1.69377C4.15834 1.86421 3.89827 2.13617 3.73529 2.47068C3.55 2.85097 3.55 3.3488 3.55 4.34444V7.72222M3.55 6.83333H1V5.94444M15.45 6.83333H18V5.94444M4.4 10.8333H4.4085M14.6 10.8333H14.6085M5.08 7.72222H13.92C15.3481 7.72222 16.0622 7.72222 16.6077 8.01287C17.0875 8.26853 17.4776 8.67648 17.7221 9.17825C18 9.74868 18 10.4954 18 11.9889V14.8333C18 15.6617 18 16.0758 17.8706 16.4025C17.6981 16.8382 17.3671 17.1842 16.9506 17.3647C16.6382 17.5 16.2421 17.5 15.45 17.5H14.94C14.6241 17.5 14.4662 17.5 14.3341 17.4781C13.6066 17.3576 13.0361 16.761 12.9209 16.0003C12.9 15.8621 12.9 15.697 12.9 15.3667C12.9 15.2841 12.9 15.2428 12.8948 15.2083C12.866 15.0181 12.7233 14.8689 12.5415 14.8388C12.5084 14.8333 12.469 14.8333 12.39 14.8333H6.61C6.53103 14.8333 6.49155 14.8333 6.45852 14.8388C6.27666 14.8689 6.13404 15.0181 6.10523 15.2083C6.1 15.2428 6.1 15.2841 6.1 15.3667C6.1 15.697 6.1 15.8621 6.07907 16.0003C5.96386 16.761 5.39336 17.3576 4.66594 17.4781C4.53379 17.5 4.37586 17.5 4.06 17.5H3.55C2.7579 17.5 2.36185 17.5 2.04944 17.3647C1.63289 17.1842 1.30194 16.8382 1.1294 16.4025C1 16.0758 1 15.6617 1 14.8333V11.9889C1 10.4954 1 9.74868 1.27793 9.17825C1.52241 8.67648 1.91251 8.26853 2.39232 8.01287C2.9378 7.72222 3.65187 7.72222 5.08 7.72222ZM4.825 10.8333C4.825 11.0788 4.63472 11.2778 4.4 11.2778C4.16528 11.2778 3.975 11.0788 3.975 10.8333C3.975 10.5879 4.16528 10.3889 4.4 10.3889C4.63472 10.3889 4.825 10.5879 4.825 10.8333ZM15.025 10.8333C15.025 11.0788 14.8347 11.2778 14.6 11.2778C14.3653 11.2778 14.175 11.0788 14.175 10.8333C14.175 10.5879 14.3653 10.3889 14.6 10.3889C14.8347 10.3889 15.025 10.5879 15.025 10.8333Z" stroke="#B1A7A7" stroke-width="2" stroke-linecap="round" stroke-linejoin="round"/>
</svg>