<svg width="30" height="28" viewBox="0 0 30 28" fill="none" xmlns="http://www.w3.org/2000/svg">
<path d="M29 14C29 21.1797 23.2736 27 16.2098 27C14.5896 27 13.0397 26.6938 11.6131 26.1352C11.3523 26.033 11.2219 25.982 11.1182 25.9577C11.0162 25.9338 10.9423 25.9238 10.8377 25.9197C10.7314 25.9156 10.6147 25.9279 10.3814 25.9524L2.67561 26.762C1.94094 26.8392 1.5736 26.8778 1.35692 26.7434C1.16818 26.6264 1.03964 26.4309 1.00542 26.2089C0.966133 25.9541 1.14167 25.6238 1.49274 24.9634L3.95395 20.333C4.15665 19.9517 4.25799 19.761 4.30389 19.5777C4.34923 19.3966 4.36019 19.2661 4.34569 19.0798C4.331 18.8912 4.2496 18.6458 4.08679 18.1548C3.65414 16.8502 3.41964 15.4529 3.41964 14C3.41964 6.8203 9.146 1 16.2098 1C23.2736 1 29 6.8203 29 14Z" stroke="#D0C3C3" stroke-width="2" stroke-linecap="round" stroke-linejoin="round"/>
<path fill-rule="evenodd" clip-rule="evenodd" d="M16.2052 10.0989C14.8514 8.51002 12.5938 8.08263 10.8975 9.53753C9.20131 10.9924 8.9625 13.4249 10.2946 15.1456C11.1198 16.2117 13.1912 18.1587 14.6478 19.4859C15.1829 19.9735 15.4505 20.2172 15.7715 20.3154C16.047 20.3997 16.3634 20.3997 16.6388 20.3154C16.9599 20.2172 17.2274 19.9735 17.7625 19.4859C19.2192 18.1587 21.2905 16.2117 22.1158 15.1456C23.4479 13.4249 23.2382 10.9771 21.5128 9.53753C19.7874 8.09794 17.559 8.51002 16.2052 10.0989Z" stroke="#D0C3C3" stroke-width="2" stroke-linecap="round" stroke-linejoin="round"/>
</svg>
