<svg xmlns="http://www.w3.org/2000/svg" width="18" height="19" viewBox="0 0 18 19" fill="none">
  <path d="M17 7.8H1M12.5556 1V4.4M5.44444 1V4.4M6.33333 12.9L8.11111 14.6L12.1111 10.775M5.26667 18H12.7333C14.2268 18 14.9735 18 15.544 17.7221C16.0457 17.4776 16.4537 17.0875 16.7094 16.6077C17 16.0622 17 15.3481 17 13.92V6.78C17 5.35187 17 4.6378 16.7094 4.09232C16.4537 3.61251 16.0457 3.22241 15.544 2.97793C14.9735 2.7 14.2268 2.7 12.7333 2.7H5.26667C3.77319 2.7 3.02646 2.7 2.45603 2.97793C1.95426 3.22241 1.54631 3.61251 1.29065 4.09232C1 4.6378 1 5.35187 1 6.78V13.92C1 15.3481 1 16.0622 1.29065 16.6077C1.54631 17.0875 1.95426 17.4776 2.45603 17.7221C3.02646 18 3.77319 18 5.26667 18Z" stroke="#B1A7A7" stroke-width="2" stroke-linecap="round" stroke-linejoin="round"/>
</svg>