<svg xmlns="http://www.w3.org/2000/svg" width="20" height="20" viewBox="0 0 20 20" fill="none">
  <path d="M18.2285 18.5344H10.7784M1 19L6.16787 17.0124C6.49841 16.8852 6.66368 16.8217 6.81831 16.7387C6.95566 16.6649 7.08659 16.5798 7.20974 16.4843C7.34839 16.3767 7.4736 16.2515 7.72403 16.001L18.2285 5.49657C19.2572 4.46792 19.2572 2.80014 18.2285 1.77149C17.1999 0.742838 15.5321 0.742836 14.5034 1.77149L3.99895 12.276C3.74853 12.5264 3.62331 12.6516 3.51572 12.7902C3.42016 12.9134 3.33507 13.0443 3.26134 13.1817C3.17834 13.3363 3.11477 13.5016 2.98764 13.8321L1 19ZM1 19L2.91667 14.0167C3.05382 13.6601 3.1224 13.4818 3.24002 13.4002C3.34281 13.3288 3.47001 13.3018 3.59293 13.3253C3.73359 13.3521 3.86867 13.4872 4.13883 13.7574L6.24265 15.8612C6.51281 16.1314 6.64789 16.2664 6.67475 16.4071C6.69823 16.53 6.67123 16.6572 6.59986 16.76C6.51819 16.8776 6.33989 16.9462 5.98329 17.0834L1 19Z" stroke="#B1A7A7" stroke-width="2" stroke-linecap="round" stroke-linejoin="round"/>
</svg>