<svg xmlns="http://www.w3.org/2000/svg" width="18" height="19" viewBox="0 0 18 19" fill="none">
  <path d="M9 5.94444V9.5M9 13.0556H9.00889M5.26667 17.5H12.7333C14.2268 17.5 14.9735 17.5 15.544 17.2094C16.0457 16.9537 16.4537 16.5457 16.7094 16.044C17 15.4735 17 14.7268 17 13.2333V5.76667C17 4.27319 17 3.52646 16.7094 2.95603C16.4537 2.45426 16.0457 2.04631 15.544 1.79065C14.9735 1.5 14.2268 1.5 12.7333 1.5H5.26667C3.77319 1.5 3.02646 1.5 2.45603 1.79065C1.95426 2.04631 1.54631 2.45426 1.29065 2.95603C1 3.52646 1 4.27319 1 5.76667V13.2333C1 14.7268 1 15.4735 1.29065 16.044C1.54631 16.5457 1.95426 16.9537 2.45603 17.2094C3.02646 17.5 3.77319 17.5 5.26667 17.5Z" stroke="#FF6868" stroke-width="2" stroke-linecap="round" stroke-linejoin="round"/>
</svg>