<svg width="19" height="24" viewBox="0 0 19 24" fill="none" xmlns="http://www.w3.org/2000/svg">
<g id="Group 318">
<path id="Icon" d="M7.50002 21.9527H5.80002C4.11985 21.9527 3.27977 21.9527 2.63803 21.6102C2.07355 21.3088 1.6146 20.828 1.32698 20.2367C1 19.5644 1 18.6843 1 16.9241V7.28582C1 6.31155 1 5.82441 1.10222 5.42474C1.37963 4.34014 2.18827 3.49298 3.22355 3.20236C3.60505 3.09527 4.07004 3.09527 5.00001 3.09527M17.0001 14.0955V7.28582C17.0001 6.31155 17.0001 5.82441 16.8978 5.42474C16.6204 4.34014 15.8118 3.49298 14.7765 3.20236C14.395 3.09527 13.93 3.09527 13 3.09527M6.60002 5.19055H11.4C11.9601 5.19055 12.2401 5.19055 12.454 5.07636C12.6422 4.97592 12.7952 4.81565 12.891 4.61853C13 4.39442 13 4.10106 13 3.51433V2.67622C13 2.08949 13 1.79612 12.891 1.57202C12.7952 1.37489 12.6422 1.21463 12.454 1.11419C12.2401 1 11.9601 1 11.4 1H6.60002C6.03996 1 5.75994 1 5.54603 1.11419C5.35786 1.21463 5.20488 1.37489 5.10901 1.57202C5.00001 1.79612 5.00001 2.08949 5.00001 2.67622V3.51433C5.00001 4.10106 5.00001 4.39442 5.10901 4.61853C5.20488 4.81565 5.35786 4.97592 5.54603 5.07636C5.75994 5.19055 6.03996 5.19055 6.60002 5.19055Z" stroke="current" stroke-width="2" stroke-linecap="round" stroke-linejoin="round"/>
<path id="Icon_2" d="M11 13.5716H5M7.00001 17.7622H5M13 9.3811H5M11.5 20.9051L13.5 23.0004L18 18.286" stroke="#6F6969" stroke-width="2" stroke-linecap="round" stroke-linejoin="round"/>
</g>
</svg>
