<svg width="28" height="28" viewBox="0 0 28 28" fill="none" xmlns="http://www.w3.org/2000/svg">
<path d="M9.83333 27V16.7294C9.83333 15.9521 9.83333 15.5635 9.98471 15.2666C10.1179 15.0054 10.3303 14.7931 10.5917 14.66C10.8888 14.5088 11.2777 14.5088 12.0556 14.5088H15.9444C16.7223 14.5088 17.1112 14.5088 17.4083 14.66C17.6697 14.7931 17.8821 15.0054 18.0153 15.2666C18.1667 15.5635 18.1667 15.9521 18.1667 16.7294V27M12.6357 1.69001L3.21582 9.01143C2.58614 9.50084 2.2713 9.74554 2.04448 10.052C1.84356 10.3235 1.69389 10.6293 1.60282 10.9544C1.5 11.3215 1.5 11.72 1.5 12.5172V22.5587C1.5 24.1133 1.5 24.8906 1.80276 25.4844C2.06907 26.0067 2.49402 26.4313 3.01669 26.6975C3.61089 27 4.38874 27 5.94444 27H22.0556C23.6113 27 24.3891 27 24.9833 26.6975C25.506 26.4313 25.9309 26.0067 26.1972 25.4844C26.5 24.8906 26.5 24.1133 26.5 22.5587V12.5172C26.5 11.72 26.5 11.3215 26.3972 10.9544C26.3061 10.6293 26.1564 10.3235 25.9555 10.052C25.7287 9.74554 25.4139 9.50084 24.7842 9.01143L15.3643 1.69001C14.8764 1.31075 14.6324 1.12113 14.363 1.04824C14.1253 0.983921 13.8747 0.983921 13.637 1.04824C13.3676 1.12113 13.1236 1.31075 12.6357 1.69001Z" stroke="#D0C3C3" stroke-width="2" stroke-linecap="round" stroke-linejoin="round"/>
</svg>
