<svg width="28" height="29" viewBox="0 0 28 29" fill="none" xmlns="http://www.w3.org/2000/svg">
<g clip-path="url(#clip0_143_356)">
<path d="M14.0001 21.6297H14.0143M10.0001 10.4998L10.1481 10.1298C10.6771 8.8073 11.8583 7.85673 13.2633 7.62255C13.7504 7.54137 14.2483 7.54939 14.7325 7.64623L14.9745 7.69464C15.9462 7.88897 16.7908 8.48416 17.3006 9.33384L17.4445 9.57365C17.802 10.1696 17.9246 10.8773 17.7883 11.5588C17.6079 12.4608 16.995 13.2162 16.1494 13.5786L15.947 13.6654C14.7659 14.1716 14.0001 15.3329 14.0001 16.6179V17.9998M8.01119 27.3334H19.989C22.3848 27.3334 23.5826 27.3334 24.4977 26.8672C25.3026 26.457 25.957 25.8026 26.3672 24.9977C26.8334 24.0826 26.8334 22.8847 26.8334 20.489V8.51119C26.8334 6.11541 26.8334 4.91752 26.3672 4.00246C25.957 3.19754 25.3026 2.54312 24.4977 2.133C23.5826 1.66675 22.3847 1.66675 19.989 1.66675H8.01119C5.61541 1.66675 4.41752 1.66675 3.50246 2.133C2.69754 2.54312 2.04312 3.19754 1.633 4.00246C1.16675 4.91752 1.16675 6.11541 1.16675 8.51119V20.489C1.16675 22.8848 1.16675 24.0826 1.633 24.9977C2.04312 25.8026 2.69754 26.457 3.50246 26.8672C4.41752 27.3334 5.61541 27.3334 8.01119 27.3334Z" stroke="#D0C3C3" stroke-width="2" stroke-linecap="round" stroke-linejoin="round"/>
</g>
<defs>
<clipPath id="clip0_143_356">
<rect width="28" height="28" fill="white" transform="translate(0 0.5)"/>
</clipPath>
</defs>
</svg>
