<svg xmlns="http://www.w3.org/2000/svg" width="20" height="18" viewBox="0 0 20 18" fill="none">
  <path d="M7.37399 12.1111H6.00814C4.73738 12.1111 4.102 12.1111 3.58498 12.2642C2.4209 12.6089 1.50996 13.4982 1.15684 14.6345C1 15.1392 1 15.7595 1 17M12.3821 5C12.3821 7.20914 10.5476 9 8.28456 9C6.02154 9 4.187 7.20914 4.187 5C4.187 2.79086 6.02154 1 8.28456 1C10.5476 1 12.3821 2.79086 12.3821 5ZM9.19513 17L12.0191 16.2124C12.1544 16.1746 12.222 16.1558 12.2851 16.1275C12.341 16.1024 12.3943 16.0718 12.444 16.0362C12.4999 15.9961 12.5496 15.9476 12.6491 15.8505L18.5285 10.1111C19.1572 9.49748 19.1572 8.50252 18.5285 7.88886C17.8999 7.27522 16.8807 7.27523 16.2521 7.88888L10.3727 13.6283C10.2732 13.7254 10.2235 13.7739 10.1824 13.8285C10.1459 13.877 10.1146 13.929 10.0889 13.9837C10.0599 14.0452 10.0406 14.1112 10.002 14.2432L9.19513 17Z" stroke="#FF6895" stroke-width="2" stroke-linecap="round" stroke-linejoin="round"/>
</svg>