
<svg version="1.1" xmlns="http://www.w3.org/2000/svg" xmlns:xlink="http://www.w3.org/1999/xlink" x="0px" y="0px" width="current"
 height="current" viewBox="0 0 1600 1800" enable-background="new 0 0 1600 1800" xml:space="preserve">
<path display="none" d="M189.146,1201.549c-9.941,0-18,6.256-18,13.973c0,4.798,3.117,9.03,7.863,11.546l-1.997,7.33
c-0.177,0.649,0.561,1.166,1.127,0.79l8.754-5.806c0.739,0.071,1.49,0.113,2.253,0.113c9.941,0,18-6.255,18-13.972
S199.088,1201.549,189.146,1201.549"/>
<path d="M772.972,272.952C404.05,272.952,105,505.102,105,791.473c0,178.045,115.659,335.089,291.792,428.462l-74.109,271.995
c-6.551,24.104,20.81,43.255,41.82,29.32l324.845-215.462c27.414,2.642,55.283,4.186,83.623,4.186
c368.911,0,667.971-232.138,667.971-518.501C1440.942,505.102,1141.883,272.952,772.972,272.952"/>
</svg>