<svg width="20" height="20" viewBox="0 0 20 20" fill="none" xmlns="http://www.w3.org/2000/svg">
<g id="Group 346">
<path id="Icon" d="M14 15L19 10M19 10L14 5M19 10H7M10 15C10 15.93 10 16.395 9.89778 16.7765C9.62038 17.8117 8.81173 18.6204 7.77646 18.8978C7.39496 19 6.92997 19 6 19H5.5C4.10218 19 3.40326 19 2.85195 18.7716C2.11687 18.4672 1.53284 17.8831 1.22836 17.1481C1 16.5967 1 15.8978 1 14.5V5.5C1 4.10217 1 3.40326 1.22836 2.85195C1.53284 2.11687 2.11687 1.53284 2.85195 1.22836C3.40326 1 4.10218 1 5.5 1H6C6.92997 1 7.39496 1 7.77646 1.10222C8.81173 1.37962 9.62038 2.18827 9.89778 3.22354C10 3.60504 10 4.07003 10 5" stroke="#FF6868" stroke-width="2" stroke-linecap="round" stroke-linejoin="round"/>
</g>
</svg>
