<svg xmlns="http://www.w3.org/2000/svg" width="18" height="19" viewBox="0 0 18 19" fill="none">
  <path d="M3.4 11.3291C1.91891 11.9825 1 12.8929 1 13.9C1 15.8882 4.58172 17.5 9 17.5C13.4183 17.5 17 15.8882 17 13.9C17 12.8929 16.0811 11.9825 14.6 11.3291M13.8 6.3C13.8 9.55097 10.2 11.1 9 13.5C7.8 11.1 4.2 9.55097 4.2 6.3C4.2 3.64903 6.34903 1.5 9 1.5C11.651 1.5 13.8 3.64903 13.8 6.3ZM9.8 6.3C9.8 6.74183 9.44183 7.1 9 7.1C8.55817 7.1 8.2 6.74183 8.2 6.3C8.2 5.85817 8.55817 5.5 9 5.5C9.44183 5.5 9.8 5.85817 9.8 6.3Z" stroke="#B1A7A7" stroke-width="2" stroke-linecap="round" stroke-linejoin="round"/>
</svg>