<svg width="current" height="current" viewBox="0 0 141 38" fill="none" xmlns="http://www.w3.org/2000/svg">
<path d="M12.5739 29.15C11.8139 29.15 11.2739 28.75 10.9539 27.95C10.6539 27.15 10.5039 25.87 10.5039 24.11C10.5039 21.51 10.8739 19.04 11.6139 16.7C11.7939 16.12 12.0839 15.7 12.4839 15.44C12.9039 15.16 13.4839 15.02 14.2239 15.02C14.6239 15.02 14.9039 15.07 15.0639 15.17C15.2239 15.27 15.3039 15.46 15.3039 15.74C15.3039 16.06 15.1539 16.78 14.8539 17.9C14.6539 18.7 14.4939 19.4 14.3739 20C14.2539 20.58 14.1539 21.31 14.0739 22.19C14.6139 20.63 15.2539 19.31 15.9939 18.23C16.7539 17.15 17.5239 16.35 18.3039 15.83C19.1039 15.29 19.8539 15.02 20.5539 15.02C21.2539 15.02 21.7439 15.18 22.0239 15.5C22.3239 15.82 22.4739 16.31 22.4739 16.97C22.4739 17.61 22.2839 18.77 21.9039 20.45C21.7439 21.17 21.6339 21.71 21.5739 22.07C22.5739 19.61 23.6839 17.82 24.9039 16.7C26.1239 15.58 27.2639 15.02 28.3239 15.02C29.6239 15.02 30.2739 15.67 30.2739 16.97C30.2739 17.75 30.0539 19.16 29.6139 21.2C29.2339 22.94 29.0439 24.09 29.0439 24.65C29.0439 25.45 29.3339 25.85 29.9139 25.85C30.3139 25.85 30.7839 25.61 31.3239 25.13C31.8839 24.63 32.6239 23.83 33.5439 22.73C33.7839 22.45 34.0539 22.31 34.3539 22.31C34.6139 22.31 34.8139 22.43 34.9539 22.67C35.1139 22.91 35.1939 23.24 35.1939 23.66C35.1939 24.46 35.0039 25.08 34.6239 25.52C33.7639 26.58 32.8339 27.45 31.8339 28.13C30.8539 28.81 29.7339 29.15 28.4739 29.15C27.4539 29.15 26.6839 28.86 26.1639 28.28C25.6439 27.68 25.3839 26.82 25.3839 25.7C25.3839 25.14 25.5239 24.14 25.8039 22.7C26.0639 21.44 26.1939 20.57 26.1939 20.09C26.1939 19.77 26.0839 19.61 25.8639 19.61C25.6039 19.61 25.2339 19.95 24.7539 20.63C24.2739 21.29 23.7939 22.17 23.3139 23.27C22.8339 24.37 22.4439 25.53 22.1439 26.75C21.9239 27.71 21.6639 28.35 21.3639 28.67C21.0839 28.99 20.6239 29.15 19.9839 29.15C19.3239 29.15 18.8239 28.84 18.4839 28.22C18.1639 27.58 18.0039 26.81 18.0039 25.91C18.0039 25.15 18.1039 24.05 18.3039 22.61C18.4639 21.33 18.5439 20.49 18.5439 20.09C18.5439 19.77 18.4339 19.61 18.2139 19.61C17.9139 19.61 17.5339 19.97 17.0739 20.69C16.6139 21.41 16.1639 22.33 15.7239 23.45C15.3039 24.57 14.9639 25.67 14.7039 26.75C14.4839 27.69 14.2239 28.33 13.9239 28.67C13.6439 28.99 13.1939 29.15 12.5739 29.15ZM46.1481 22.31C46.4081 22.31 46.6081 22.43 46.7481 22.67C46.9081 22.91 46.9881 23.24 46.9881 23.66C46.9881 24.46 46.7981 25.08 46.4181 25.52C45.6781 26.42 44.6281 27.25 43.2681 28.01C41.9281 28.77 40.4881 29.15 38.9481 29.15C36.8481 29.15 35.2181 28.58 34.0581 27.44C32.8981 26.3 32.3181 24.74 32.3181 22.76C32.3181 21.38 32.6081 20.1 33.1881 18.92C33.7681 17.72 34.5681 16.77 35.5881 16.07C36.6281 15.37 37.7981 15.02 39.0981 15.02C40.2581 15.02 41.1881 15.37 41.8881 16.07C42.5881 16.75 42.9381 17.68 42.9381 18.86C42.9381 20.24 42.4381 21.43 41.4381 22.43C40.4581 23.41 38.7881 24.19 36.4281 24.77C36.9281 25.69 37.8781 26.15 39.2781 26.15C40.1781 26.15 41.1981 25.84 42.3381 25.22C43.4981 24.58 44.4981 23.75 45.3381 22.73C45.5781 22.45 45.8481 22.31 46.1481 22.31ZM38.5881 17.96C37.8481 17.96 37.2181 18.39 36.6981 19.25C36.1981 20.11 35.9481 21.15 35.9481 22.37V22.43C37.1281 22.15 38.0581 21.73 38.7381 21.17C39.4181 20.61 39.7581 19.96 39.7581 19.22C39.7581 18.84 39.6481 18.54 39.4281 18.32C39.2281 18.08 38.9481 17.96 38.5881 17.96ZM57.9255 22.31C58.1855 22.31 58.3855 22.43 58.5255 22.67C58.6855 22.91 58.7655 23.24 58.7655 23.66C58.7655 24.46 58.5755 25.08 58.1955 25.52C57.4555 26.42 56.4055 27.25 55.0455 28.01C53.7055 28.77 52.2655 29.15 50.7255 29.15C48.6255 29.15 46.9955 28.58 45.8355 27.44C44.6755 26.3 44.0955 24.74 44.0955 22.76C44.0955 21.38 44.3855 20.1 44.9655 18.92C45.5455 17.72 46.3455 16.77 47.3655 16.07C48.4055 15.37 49.5755 15.02 50.8755 15.02C52.0355 15.02 52.9655 15.37 53.6655 16.07C54.3655 16.75 54.7155 17.68 54.7155 18.86C54.7155 20.24 54.2155 21.43 53.2155 22.43C52.2355 23.41 50.5655 24.19 48.2055 24.77C48.7055 25.69 49.6555 26.15 51.0555 26.15C51.9555 26.15 52.9755 25.84 54.1155 25.22C55.2755 24.58 56.2755 23.75 57.1155 22.73C57.3555 22.45 57.6255 22.31 57.9255 22.31ZM50.3655 17.96C49.6255 17.96 48.9955 18.39 48.4755 19.25C47.9755 20.11 47.7255 21.15 47.7255 22.37V22.43C48.9055 22.15 49.8355 21.73 50.5155 21.17C51.1955 20.61 51.5355 19.96 51.5355 19.22C51.5355 18.84 51.4255 18.54 51.2055 18.32C51.0055 18.08 50.7255 17.96 50.3655 17.96ZM69.7028 22.31C69.9628 22.31 70.1628 22.43 70.3028 22.67C70.4628 22.91 70.5428 23.24 70.5428 23.66C70.5428 24.46 70.3528 25.08 69.9728 25.52C69.1128 26.58 68.1728 27.45 67.1528 28.13C66.1328 28.81 64.9628 29.15 63.6428 29.15C59.5628 29.15 57.5228 26.28 57.5228 20.54C57.5228 19.66 57.5528 18.77 57.6128 17.87H56.4428C55.8428 17.87 55.4328 17.76 55.2128 17.54C55.0128 17.32 54.9128 16.97 54.9128 16.49C54.9128 15.37 55.3628 14.81 56.2628 14.81H57.9728C58.3128 12.61 58.8328 10.6 59.5328 8.78C60.2328 6.96 61.0728 5.51 62.0528 4.43C63.0528 3.35 64.1228 2.81 65.2628 2.81C66.1028 2.81 66.7628 3.18 67.2428 3.92C67.7228 4.66 67.9628 5.59 67.9628 6.71C67.9628 9.81 66.6628 12.51 64.0628 14.81H67.4228C67.7428 14.81 67.9728 14.88 68.1128 15.02C68.2528 15.16 68.3228 15.42 68.3228 15.8C68.3228 17.18 67.1928 17.87 64.9328 17.87H61.2728C61.2328 18.87 61.2128 19.65 61.2128 20.21C61.2128 22.29 61.4528 23.75 61.9328 24.59C62.4328 25.43 63.2128 25.85 64.2728 25.85C65.1328 25.85 65.8928 25.59 66.5528 25.07C67.2128 24.55 67.9928 23.77 68.8928 22.73C69.1328 22.45 69.4028 22.31 69.7028 22.31ZM64.4528 5.69C64.1528 5.69 63.8128 6.07 63.4328 6.83C63.0728 7.57 62.7228 8.61 62.3828 9.95C62.0628 11.27 61.7928 12.74 61.5728 14.36C62.7528 13.34 63.6328 12.2 64.2128 10.94C64.8128 9.66 65.1128 8.5 65.1128 7.46C65.1128 6.28 64.8928 5.69 64.4528 5.69ZM70.2302 29.15C69.4702 29.15 68.9302 28.75 68.6102 27.95C68.3102 27.15 68.1602 25.87 68.1602 24.11C68.1602 21.51 68.5302 19.04 69.2702 16.7C69.4502 16.12 69.7402 15.7 70.1402 15.44C70.5602 15.16 71.1402 15.02 71.8802 15.02C72.2802 15.02 72.5602 15.07 72.7202 15.17C72.8802 15.27 72.9602 15.46 72.9602 15.74C72.9602 16.06 72.8102 16.78 72.5102 17.9C72.3102 18.7 72.1502 19.4 72.0302 20C71.9102 20.6 71.8102 21.34 71.7302 22.22C72.3902 20.5 73.1302 19.1 73.9502 18.02C74.7702 16.94 75.5702 16.17 76.3502 15.71C77.1502 15.25 77.8802 15.02 78.5402 15.02C79.8402 15.02 80.4902 15.67 80.4902 16.97C80.4902 17.23 80.4002 17.86 80.2202 18.86C80.0602 19.66 79.9802 20.16 79.9802 20.36C79.9802 21.06 80.2302 21.41 80.7302 21.41C81.2902 21.41 82.0102 20.97 82.8902 20.09C83.1502 19.83 83.4202 19.7 83.7002 19.7C83.9602 19.7 84.1602 19.82 84.3002 20.06C84.4602 20.28 84.5402 20.58 84.5402 20.96C84.5402 21.7 84.3402 22.28 83.9402 22.7C83.3802 23.28 82.7202 23.78 81.9602 24.2C81.2202 24.6 80.4302 24.8 79.5902 24.8C78.5302 24.8 77.7202 24.53 77.1602 23.99C76.6202 23.45 76.3502 22.72 76.3502 21.8C76.3502 21.5 76.3802 21.2 76.4402 20.9C76.4802 20.5 76.5002 20.23 76.5002 20.09C76.5002 19.77 76.3902 19.61 76.1702 19.61C75.8702 19.61 75.4702 19.95 74.9702 20.63C74.4902 21.29 74.0102 22.17 73.5302 23.27C73.0502 24.37 72.6602 25.53 72.3602 26.75C72.1402 27.69 71.8802 28.33 71.5802 28.67C71.3002 28.99 70.8502 29.15 70.2302 29.15ZM85.4425 29.15C84.2025 29.15 83.2125 28.7 82.4725 27.8C81.7325 26.9 81.3625 25.72 81.3625 24.26C81.3625 22.66 81.7325 21.15 82.4725 19.73C83.2125 18.29 84.1925 17.14 85.4125 16.28C86.6525 15.4 87.9625 14.96 89.3425 14.96C89.7825 14.96 90.0725 15.05 90.2125 15.23C90.3725 15.39 90.5025 15.69 90.6025 16.13C91.0225 16.05 91.4625 16.01 91.9225 16.01C92.9025 16.01 93.3925 16.36 93.3925 17.06C93.3925 17.48 93.2425 18.48 92.9425 20.06C92.4825 22.36 92.2525 23.96 92.2525 24.86C92.2525 25.16 92.3225 25.4 92.4625 25.58C92.6225 25.76 92.8225 25.85 93.0625 25.85C93.4425 25.85 93.9025 25.61 94.4425 25.13C94.9825 24.63 95.7125 23.83 96.6325 22.73C96.8725 22.45 97.1425 22.31 97.4425 22.31C97.7025 22.31 97.9025 22.43 98.0425 22.67C98.2025 22.91 98.2825 23.24 98.2825 23.66C98.2825 24.46 98.0925 25.08 97.7125 25.52C96.8925 26.54 96.0225 27.4 95.1025 28.1C94.1825 28.8 93.2925 29.15 92.4325 29.15C91.7725 29.15 91.1625 28.93 90.6025 28.49C90.0625 28.03 89.6525 27.41 89.3725 26.63C88.3325 28.31 87.0225 29.15 85.4425 29.15ZM86.5225 26.12C86.9625 26.12 87.3825 25.86 87.7825 25.34C88.1825 24.82 88.4725 24.13 88.6525 23.27L89.7625 17.75C88.9225 17.77 88.1425 18.09 87.4225 18.71C86.7225 19.31 86.1625 20.11 85.7425 21.11C85.3225 22.11 85.1125 23.17 85.1125 24.29C85.1125 24.91 85.2325 25.37 85.4725 25.67C85.7325 25.97 86.0825 26.12 86.5225 26.12ZM110.987 19.88C111.047 19.86 111.147 19.85 111.287 19.85C111.587 19.85 111.817 19.95 111.977 20.15C112.137 20.35 112.217 20.62 112.217 20.96C112.217 21.58 112.097 22.07 111.857 22.43C111.617 22.77 111.257 23.02 110.777 23.18C109.857 23.48 108.877 23.63 107.837 23.63C106.957 23.63 106.127 23.51 105.347 23.27C104.767 24.21 104.127 25.18 103.427 26.18C102.627 27.32 101.937 28.1 101.357 28.52C100.777 28.94 100.117 29.15 99.3773 29.15C98.5573 29.15 97.9073 28.83 97.4273 28.19C96.9673 27.55 96.6773 26.54 96.5573 25.16C96.3173 22.36 96.1973 19.91 96.1973 17.81V16.76C96.2173 16.1 96.3973 15.64 96.7373 15.38C97.0773 15.12 97.5873 14.99 98.2673 14.99C98.7873 14.99 99.1673 15.11 99.4073 15.35C99.6673 15.57 99.7973 15.95 99.7973 16.49C99.7973 18.79 99.9373 21.78 100.217 25.46C101.417 23.68 102.317 22.26 102.917 21.2C102.617 20.62 102.467 19.93 102.467 19.13C102.467 18.45 102.617 17.79 102.917 17.15C103.217 16.51 103.627 15.99 104.147 15.59C104.667 15.19 105.257 14.99 105.917 14.99C106.497 14.99 106.967 15.2 107.327 15.62C107.687 16.02 107.867 16.61 107.867 17.39C107.867 18.29 107.627 19.32 107.147 20.48C107.907 20.44 108.917 20.29 110.177 20.03L110.987 19.88ZM122.994 22.31C123.254 22.31 123.454 22.43 123.594 22.67C123.754 22.91 123.834 23.24 123.834 23.66C123.834 24.46 123.644 25.08 123.264 25.52C122.524 26.42 121.474 27.25 120.114 28.01C118.774 28.77 117.334 29.15 115.794 29.15C113.694 29.15 112.064 28.58 110.904 27.44C109.744 26.3 109.164 24.74 109.164 22.76C109.164 21.38 109.454 20.1 110.034 18.92C110.614 17.72 111.414 16.77 112.434 16.07C113.474 15.37 114.644 15.02 115.944 15.02C117.104 15.02 118.034 15.37 118.734 16.07C119.434 16.75 119.784 17.68 119.784 18.86C119.784 20.24 119.284 21.43 118.284 22.43C117.304 23.41 115.634 24.19 113.274 24.77C113.774 25.69 114.724 26.15 116.124 26.15C117.024 26.15 118.044 25.84 119.184 25.22C120.344 24.58 121.344 23.75 122.184 22.73C122.424 22.45 122.694 22.31 122.994 22.31ZM115.434 17.96C114.694 17.96 114.064 18.39 113.544 19.25C113.044 20.11 112.794 21.15 112.794 22.37V22.43C113.974 22.15 114.904 21.73 115.584 21.17C116.264 20.61 116.604 19.96 116.604 19.22C116.604 18.84 116.494 18.54 116.274 18.32C116.074 18.08 115.794 17.96 115.434 17.96ZM130.061 24.77C130.281 24.57 130.501 24.47 130.721 24.47C130.961 24.47 131.151 24.61 131.291 24.89C131.451 25.15 131.531 25.47 131.531 25.85C131.531 26.69 131.231 27.36 130.631 27.86C129.591 28.72 128.411 29.15 127.091 29.15C125.191 29.15 123.801 28.36 122.921 26.78C122.041 25.18 121.601 23.1 121.601 20.54C121.601 18.1 121.911 15.32 122.531 12.2C123.171 9.08 124.101 6.4 125.321 4.16C126.561 1.92 128.031 0.799998 129.731 0.799998C130.691 0.799998 131.441 1.25 131.981 2.15C132.541 3.03 132.821 4.3 132.821 5.96C132.821 8.34 132.161 11.1 130.841 14.24C129.541 17.38 127.761 20.48 125.501 23.54C125.641 24.36 125.891 24.95 126.251 25.31C126.611 25.67 127.101 25.85 127.721 25.85C128.061 25.85 128.441 25.75 128.861 25.55C129.301 25.35 129.701 25.09 130.061 24.77ZM129.071 3.77C128.611 3.77 128.091 4.6 127.511 6.26C126.931 7.92 126.421 9.98 125.981 12.44C125.541 14.9 125.301 17.26 125.261 19.52C126.681 17.18 127.811 14.84 128.651 12.5C129.491 10.14 129.911 7.99 129.911 6.05C129.911 4.53 129.631 3.77 129.071 3.77Z" fill="current"/>
</svg>
