<svg width="120" height="120" viewBox="0 0 120 120" fill="none" xmlns="http://www.w3.org/2000/svg">
<path id="Vector" opacity="0.2" d="M102.494 0H38.4706C17.2235 0 0 17.2235 0 38.4706C0 58.2494 14.9294 74.5341 34.1294 76.6941L51.1412 59.6824L24.2047 39.1341C21.5365 36.9882 21.6 32.7529 24.3529 30C26.4565 27.8965 29.5482 27.2965 31.8847 28.5388L66.6071 44.2165L85.8847 24.9388C88.5529 22.2706 92.8729 22.2706 95.5341 24.9388C98.3294 27.7341 98.3294 32.2588 95.5341 35.0541L76.4894 54.0988L92.1671 88.8212C93.4094 91.1577 92.8094 94.2494 90.7059 96.3529C87.96 99.0988 83.7247 99.1694 81.5718 96.5012L61.0235 69.5647L43.4682 87.12C46.1788 105.713 62.1812 120 81.5294 120C102.776 120 120 102.776 120 81.5294V17.5059C120 7.84235 112.165 0 102.494 0Z" fill="#FF6895"/>
</svg>
