<svg xmlns="http://www.w3.org/2000/svg" width="18" height="15" viewBox="0 0 18 15" fill="none">
  <path d="M4.2 6.6875V9.9375M13.8 5.0625V8.3125M13 1C14.959 1 16.0185 1.30449 16.5457 1.54067C16.6159 1.57212 16.651 1.58785 16.7523 1.68605C16.8131 1.74492 16.9239 1.91763 16.9524 1.99782C17 2.1316 17 2.20473 17 2.35098V11.0841C17 11.8224 17 12.1916 16.891 12.3814C16.7801 12.5744 16.6731 12.6642 16.4656 12.7383C16.2615 12.8113 15.8496 12.7309 15.0257 12.5701C14.4491 12.4576 13.7652 12.375 13 12.375C10.6 12.375 8.2 14 5 14C3.04103 14 1.98149 13.6955 1.45431 13.4593C1.3841 13.4279 1.34899 13.4121 1.24768 13.3139C1.18695 13.2551 1.07609 13.0824 1.04758 13.0022C1 12.8684 1 12.7953 1 12.649L1 3.91594C1 3.17757 1 2.80838 1.10902 2.61862C1.21992 2.42558 1.32687 2.33584 1.53445 2.26166C1.73851 2.18873 2.15043 2.26911 2.97426 2.42988C3.55089 2.5424 4.23478 2.625 5 2.625C7.4 2.625 9.8 1 13 1ZM11 7.5C11 8.62183 10.1046 9.53125 9 9.53125C7.89543 9.53125 7 8.62183 7 7.5C7 6.37817 7.89543 5.46875 9 5.46875C10.1046 5.46875 11 6.37817 11 7.5Z" stroke="#B1A7A7" stroke-width="2" stroke-linecap="round" stroke-linejoin="round"/>
</svg>