<svg width="210" height="212" viewBox="0 0 210 212" fill="none" xmlns="http://www.w3.org/2000/svg">
<path d="M145.733 178H67.9798C62.8977 178 60.3567 178 59.18 176.995C58.159 176.123 57.6172 174.815 57.7225 173.476C57.844 171.934 59.6408 170.137 63.2344 166.543L134.565 95.2132C137.887 91.8911 139.548 90.23 141.463 89.6076C143.148 89.0602 144.963 89.0602 146.648 89.6076C148.563 90.23 150.224 91.891 153.546 95.2132L186 127.667V137.733M145.733 178C159.828 178 166.875 178 172.259 175.257C176.994 172.844 180.844 168.994 183.257 164.259C186 158.875 186 151.828 186 137.733M145.733 178H75.2667C61.172 178 54.1247 178 48.7412 175.257C44.0058 172.844 40.1558 168.994 37.743 164.259C35 158.875 35 151.828 35 137.733V67.2667C35 53.172 35 46.1247 37.743 40.7412C40.1558 36.0058 44.0058 32.1558 48.7412 29.743C54.1247 27 61.172 27 75.2667 27H145.733C159.828 27 166.875 27 172.259 29.743C176.994 32.1558 180.844 36.0058 183.257 40.7412C186 46.1247 186 53.172 186 67.2667V137.733M97.9167 73.1389C97.9167 82.405 90.405 89.9167 81.1389 89.9167C71.8728 89.9167 64.3611 82.405 64.3611 73.1389C64.3611 63.8728 71.8728 56.3611 81.1389 56.3611C90.405 56.3611 97.9167 63.8728 97.9167 73.1389Z" stroke="#6F6969" stroke-width="17" stroke-linecap="round" stroke-linejoin="round"/>
<path d="M21 9L201 190" stroke="#6F6969" stroke-width="18" stroke-linecap="round"/>
<path d="M9 22L189 203" stroke="#D0C3C3" stroke-width="18" stroke-linecap="round"/>
</svg>
