<svg xmlns="http://www.w3.org/2000/svg" width="22" height="21" viewBox="0 0 22 21" fill="none">
  <path className="stroke" d="M18.4375 3.125C17.7424 5.23311 15.8722 8.12973 11.7017 7.35135C6.48865 6.37838 11.1804 2 7.53127 2C3.88212 2 0.23298 2.97297 1.27559 7.35135C2.3182 11.7297 8.05262 4.43243 11.1805 4.43243C14.3083 4.43243 21.0853 11.7297 14.3083 13.6757C7.53127 15.6216 13.7869 8.32432 7.53127 9.78378C1.27559 11.2432 -2.37351 20 5.44609 20C13.2657 20 5.96743 8.81081 13.2657 11.2432C20.564 13.6757 19.5214 16.1081 17.4362 17.5676C15.3509 19.027 10.659 14.6486 7.53127 14.1622C4.40351 13.6757 5.96727 20 11.7017 20C16.2893 20 18.4787 19.027 19 18.5405" stroke="current" stroke-width="2" stroke-linecap="round"/>
  <path className="fill" d="M19.5359 0.866666L19.7969 4.32092L16.6749 2.81981L19.5359 0.866666Z" fill="current"/>
</svg>