<svg xmlns="http://www.w3.org/2000/svg" width="20" height="20" viewBox="0 0 20 20" fill="none">
  <path className="stroke" d="M1 1H16.875C18.0486 1 19 1.95139 19 3.125V3.125C19 4.29861 18.0486 5.25 16.875 5.25H3.125C1.9514 5.25 1 6.20139 1 7.375V7.375C1 8.54861 1.95139 9.5 3.125 9.5H16.875C18.0486 9.5 19 10.4514 19 11.625V11.625C19 12.7986 18.0486 13.75 16.875 13.75H3.125C1.9514 13.75 1 14.7014 1 15.875V15.875C1 17.0486 1.95139 18 3.125 18H17.5" stroke="current" stroke-width="2" stroke-linecap="round"/>
  <path className="fill"  d="M20 18L17 19.7321L17 16.2679L20 18Z" fill="current"/>
</svg>