<svg width="28" height="28" viewBox="0 0 28 28" fill="none" xmlns="http://www.w3.org/2000/svg">
<path d="M5.31118 23.6699C6.10201 21.8068 7.9484 20.5 10.1 20.5H17.9C20.0516 20.5 21.898 21.8068 22.6888 23.6699M19.2 10.75C19.2 13.6219 16.8719 15.95 14 15.95C11.1281 15.95 8.8 13.6219 8.8 10.75C8.8 7.87812 11.1281 5.55 14 5.55C16.8719 5.55 19.2 7.87812 19.2 10.75ZM27 14C27 21.1797 21.1797 27 14 27C6.8203 27 1 21.1797 1 14C1 6.8203 6.8203 1 14 1C21.1797 1 27 6.8203 27 14Z" stroke="#D0C3C3" stroke-width="2" stroke-linecap="round" stroke-linejoin="round"/>
</svg>
