<svg width="20" height="20" viewBox="0 0 20 20" fill="none" xmlns="http://www.w3.org/2000/svg">
<path d="M11.75 9.1H6.5M8.25 12.7H6.5M13.5 5.5H6.5M17 5.32V14.68C17 16.1921 17 16.9482 16.7139 17.5258C16.4622 18.0338 16.0607 18.4469 15.5667 18.7057C15.0052 19 14.2701 19 12.8 19H7.2C5.72986 19 4.99479 19 4.43327 18.7057C3.93935 18.4469 3.53778 18.0338 3.28611 17.5258C3 16.9482 3 16.1921 3 14.68V5.32C3 3.80786 3 3.05179 3.28611 2.47423C3.53778 1.96619 3.93935 1.55314 4.43327 1.29428C4.99479 1 5.72986 1 7.2 1H12.8C14.2701 1 15.0052 1 15.5667 1.29428C16.0607 1.55314 16.4622 1.96619 16.7139 2.47423C17 3.05179 17 3.80786 17 5.32Z" stroke="#6F6969" stroke-width="2" stroke-linecap="round" stroke-linejoin="round"/>
</svg>
