<svg xmlns="http://www.w3.org/2000/svg" width="18" height="20" viewBox="0 0 18 20" fill="none">
  <path d="M6.67178 16.634L7.1938 17.817C7.34898 18.1691 7.60223 18.4684 7.92283 18.6783C8.24344 18.8883 8.61762 19.0001 9 19C9.38238 19.0001 9.75657 18.8883 10.0772 18.6783C10.3978 18.4684 10.651 18.1691 10.8062 17.817L11.3282 16.634C11.514 16.2142 11.8266 15.8643 12.2214 15.634C12.6187 15.4031 13.0782 15.3047 13.5344 15.353L14.8116 15.49C15.1918 15.5305 15.5755 15.459 15.9162 15.2842C16.2569 15.1094 16.5399 14.8387 16.7309 14.505C16.9222 14.1715 17.0134 13.7893 16.9933 13.4046C16.9732 13.0199 16.8428 12.6494 16.6178 12.338L15.8616 11.291C15.5923 10.9154 15.4484 10.4633 15.4507 10C15.4506 9.53793 15.5959 9.08772 15.8656 8.714L16.6218 7.667C16.8468 7.35558 16.9772 6.98506 16.9973 6.60041C17.0174 6.21575 16.9262 5.83349 16.7349 5.5C16.5439 5.16631 16.2608 4.89564 15.9202 4.7208C15.5795 4.54597 15.1958 4.47448 14.8156 4.515L13.5383 4.652C13.0822 4.70027 12.6226 4.60191 12.2254 4.371C11.8298 4.13943 11.5171 3.78762 11.3322 3.366L10.8062 2.183C10.651 1.83085 10.3978 1.53164 10.0772 1.32166C9.75657 1.11167 9.38238 0.999937 9 1C8.61762 0.999937 8.24344 1.11167 7.92283 1.32166C7.60223 1.53164 7.34898 1.83085 7.1938 2.183L6.67178 3.366C6.48683 3.78762 6.17417 4.13943 5.77861 4.371C5.38134 4.60191 4.92175 4.70027 4.46564 4.652L3.18442 4.515C2.80422 4.47448 2.42052 4.54597 2.07984 4.7208C1.73916 4.89564 1.45614 5.16631 1.26508 5.5C1.07378 5.83349 0.982645 6.21575 1.00273 6.60041C1.02281 6.98506 1.15325 7.35558 1.37822 7.667L2.13444 8.714C2.40413 9.08772 2.54936 9.53793 2.54927 10C2.54936 10.4621 2.40413 10.9123 2.13444 11.286L1.37822 12.333C1.15325 12.6444 1.02281 13.0149 1.00273 13.3996C0.982645 13.7843 1.07378 14.1665 1.26508 14.5C1.45633 14.8335 1.73939 15.104 2.08002 15.2789C2.42065 15.4537 2.80425 15.5253 3.18442 15.485L4.46167 15.348C4.91778 15.2997 5.37737 15.3981 5.77464 15.629C6.17168 15.8599 6.48579 16.2118 6.67178 16.634Z" stroke="#B1A7A7" stroke-width="2" stroke-linecap="round" stroke-linejoin="round"/>
  <path d="M8.9984 12.7C10.4783 12.7 11.6779 11.4912 11.6779 10C11.6779 8.50883 10.4783 7.3 8.9984 7.3C7.51854 7.3 6.31887 8.50883 6.31887 10C6.31887 11.4912 7.51854 12.7 8.9984 12.7Z" stroke="#B1A7A7" stroke-width="2" stroke-linecap="round" stroke-linejoin="round"/>
</svg>