<svg class="shadow" xmlns="http://www.w3.org/2000/svg" width="22" height="24" viewBox="0 0 22 24" fill="none">
  <path d="M7.21111 13.661L14.8 18.039M14.7889 5.961L7.21111 10.339M21 4.3C21 6.12254 19.5076 7.6 17.6667 7.6C15.8257 7.6 14.3333 6.12254 14.3333 4.3C14.3333 2.47746 15.8257 1 17.6667 1C19.5076 1 21 2.47746 21 4.3ZM7.66667 12C7.66667 13.8225 6.17428 15.3 4.33333 15.3C2.49238 15.3 1 13.8225 1 12C1 10.1775 2.49238 8.7 4.33333 8.7C6.17428 8.7 7.66667 10.1775 7.66667 12ZM21 19.7C21 21.5225 19.5076 23 17.6667 23C15.8257 23 14.3333 21.5225 14.3333 19.7C14.3333 17.8775 15.8257 16.4 17.6667 16.4C19.5076 16.4 21 17.8775 21 19.7Z" stroke="white" stroke-width="2" stroke-linecap="round" stroke-linejoin="round"/>
</svg>