<svg width="26" height="28" viewBox="0 0 26 28" fill="none" xmlns="http://www.w3.org/2000/svg">
<path d="M4.36 1.832L2.28 4.536C1.86802 5.07157 1.66203 5.33936 1.66681 5.56351C1.67097 5.75857 1.76478 5.9415 1.92233 6.06178C2.10339 6.2 2.4467 6.2 3.13333 6.2H22.8667C23.5533 6.2 23.8966 6.2 24.0777 6.06178C24.2352 5.9415 24.329 5.75857 24.3332 5.56351C24.338 5.33936 24.132 5.07157 23.72 4.536L21.64 1.832M4.36 1.832C4.59467 1.52693 4.712 1.3744 4.8607 1.26439C4.9924 1.16695 5.14154 1.09425 5.30051 1.04998C5.48 1 5.67556 1 6.06667 1H19.9333C20.3244 1 20.52 1 20.6995 1.04998C20.8585 1.09425 21.0076 1.16695 21.1393 1.26439C21.288 1.3744 21.4053 1.52693 21.64 1.832M4.36 1.832L1.85333 5.09066C1.53672 5.50226 1.37841 5.70806 1.266 5.9347C1.16625 6.1358 1.09349 6.34861 1.04954 6.56785C1 6.81492 1 7.07217 1 7.58666L1 22.84C1 24.2961 1 25.0242 1.29065 25.5804C1.54631 26.0696 1.95426 26.4673 2.45603 26.7166C3.02646 27 3.77319 27 5.26667 27L20.7333 27C22.2268 27 22.9735 27 23.544 26.7166C24.0457 26.4673 24.4537 26.0696 24.7094 25.5804C25 25.0242 25 24.2961 25 22.84V7.58667C25 7.07217 25 6.81492 24.9505 6.56785C24.9065 6.34861 24.8338 6.13581 24.734 5.9347C24.6216 5.70806 24.4633 5.50227 24.1467 5.09067L21.64 1.832M18.3333 11.4C18.3333 12.7791 17.7714 14.1018 16.7712 15.077C15.771 16.0521 14.4145 16.6 13 16.6C11.5855 16.6 10.229 16.0521 9.22876 15.077C8.22857 14.1018 7.66667 12.7791 7.66667 11.4" stroke="#D0C3C3" stroke-width="2" stroke-linecap="round" stroke-linejoin="round"/>
</svg>
