<svg width="22" height="19" viewBox="0 0 22 19" fill="none" xmlns="http://www.w3.org/2000/svg">
<g id="Icon">
<g id="Icon_2">
<path d="M12 8.61111H16.8C17.9201 8.61111 18.4802 8.61111 18.908 8.80488C19.2843 8.97532 19.5903 9.24728 19.782 9.58179C20 9.96208 20 10.4599 20 11.4556V17.5H12H2V4.34444C2 3.3488 2 2.85097 2.21799 2.47068C2.40973 2.13617 2.71569 1.86421 3.09202 1.69377C3.51984 1.5 4.0799 1.5 5.2 1.5H8.8C9.9201 1.5 10.4802 1.5 10.908 1.69377C11.2843 1.86421 11.5903 2.13617 11.782 2.47068C12 2.85097 12 3.3488 12 4.34444V8.61111Z" fill="#D9D9D9"/>
<path d="M12 8.61111H16.8C17.9201 8.61111 18.4802 8.61111 18.908 8.80488C19.2843 8.97532 19.5903 9.24728 19.782 9.58179C20 9.96208 20 10.4599 20 11.4556V17.5M12 17.5V4.34444C12 3.3488 12 2.85097 11.782 2.47068C11.5903 2.13617 11.2843 1.86421 10.908 1.69377C10.4802 1.5 9.9201 1.5 8.8 1.5H5.2C4.0799 1.5 3.51984 1.5 3.09202 1.69377C2.71569 1.86421 2.40973 2.13617 2.21799 2.47068C2 2.85097 2 3.3488 2 4.34444V17.5M21 17.5H1M5.5 5.05556H8.5M5.5 8.61111H8.5M5.5 12.1667H8.5" stroke="#B1A7A7" stroke-width="2" stroke-linecap="round" stroke-linejoin="round"/>
</g>
</g>
</svg>
