<svg width="20" height="19" viewBox="0 0 20 19" fill="none" xmlns="http://www.w3.org/2000/svg">
<g id="Icon">
<g id="Icon_2">
<path d="M1 9.32222C1 7.82875 1 7.08201 1.29428 6.51158C1.55314 6.00982 1.96619 5.60187 2.47423 5.3462C3.05179 5.05556 3.80786 5.05556 5.32 5.05556H14.68C16.1921 5.05556 16.9482 5.05556 17.5258 5.3462C18.0338 5.60187 18.4469 6.00982 18.7057 6.51158C19 7.08201 19 7.82875 19 9.32222V13.2333C19 14.7268 19 15.4735 18.7057 16.044C18.4469 16.5457 18.0338 16.9537 17.5258 17.2094C16.9482 17.5 16.1921 17.5 14.68 17.5H5.32C3.80786 17.5 3.05179 17.5 2.47423 17.2094C1.96619 16.9537 1.55314 16.5457 1.29428 16.044C1 15.4735 1 14.7268 1 13.2333V9.32222Z" fill="#CDC0B6"/>
<path d="M10 11.5444C10 11.2955 10 11.1711 10.049 11.076C10.0922 10.9924 10.161 10.9244 10.2457 10.8818C10.342 10.8333 10.468 10.8333 10.72 10.8333H15.13C15.382 10.8333 15.508 10.8333 15.6043 10.8818C15.689 10.9244 15.7578 10.9924 15.801 11.076C15.85 11.1711 15.85 11.2955 15.85 11.5444V13.6778C15.85 13.9267 15.85 14.0511 15.801 14.1462C15.7578 14.2298 15.689 14.2978 15.6043 14.3404C15.508 14.3889 15.382 14.3889 15.13 14.3889H10.72C10.468 14.3889 10.342 14.3889 10.2457 14.3404C10.161 14.2978 10.0922 14.2298 10.049 14.1462C10 14.0511 10 13.9267 10 13.6778V11.5444Z" fill="#CDC0B6"/>
<path d="M6.4 17.5V5.05556C6.4 4.22891 6.4 3.81559 6.492 3.47648C6.74166 2.55624 7.46944 1.83744 8.40119 1.59086C8.74454 1.5 9.16303 1.5 10 1.5C10.837 1.5 11.2555 1.5 11.5988 1.59086C12.5306 1.83744 13.2583 2.55624 13.508 3.47648C13.6 3.81559 13.6 4.22891 13.6 5.05556V10.8333M13.6 14.3889V17.5M5.32 17.5H14.68C16.1921 17.5 16.9482 17.5 17.5258 17.2094C18.0338 16.9537 18.4469 16.5457 18.7057 16.044C19 15.4735 19 14.7268 19 13.2333V9.32222C19 7.82875 19 7.08201 18.7057 6.51158C18.4469 6.00982 18.0338 5.60187 17.5258 5.3462C16.9482 5.05556 16.1921 5.05556 14.68 5.05556H5.32C3.80786 5.05556 3.05179 5.05556 2.47423 5.3462C1.96619 5.60187 1.55314 6.00982 1.29428 6.51158C1 7.08201 1 7.82875 1 9.32222V13.2333C1 14.7268 1 15.4735 1.29428 16.044C1.55314 16.5457 1.96619 16.9537 2.47423 17.2094C3.05179 17.5 3.80786 17.5 5.32 17.5ZM10.72 14.3889H15.13C15.382 14.3889 15.508 14.3889 15.6043 14.3404C15.689 14.2978 15.7578 14.2298 15.801 14.1462C15.85 14.0511 15.85 13.9267 15.85 13.6778V11.5444C15.85 11.2955 15.85 11.1711 15.801 11.076C15.7578 10.9924 15.689 10.9244 15.6043 10.8818C15.508 10.8333 15.382 10.8333 15.13 10.8333H10.72C10.468 10.8333 10.342 10.8333 10.2457 10.8818C10.161 10.9244 10.0922 10.9924 10.049 11.076C10 11.1711 10 11.2955 10 11.5444V13.6778C10 13.9267 10 14.0511 10.049 14.1462C10.0922 14.2298 10.161 14.2978 10.2457 14.3404C10.342 14.3889 10.468 14.3889 10.72 14.3889Z" stroke="current" stroke-width="2" stroke-linecap="round" stroke-linejoin="round"/>
</g>
</g>
</svg>
