<svg width="24" height="19" viewBox="0 0 24 19" fill="none" xmlns="http://www.w3.org/2000/svg">
<g id="Group 34240">
<path id="Vector 202" d="M17.5 6.5L14.5 11.5L18 17.5H22.5V15.5L17.5 6.5Z" fill="#A3D8B5"/>
<g id="Icon">
<path d="M8.37129 2.99419L1.90208 14.2188C1.28954 15.2817 0.983268 15.8131 1.0007 16.255C1.01589 16.6399 1.17171 16.9971 1.42651 17.2312C1.71909 17.5 2.25715 17.5 3.33327 17.5H19.5939L11.2337 2.9942C10.7529 2.15996 10.5125 1.74284 10.2122 1.5962C9.94948 1.46793 9.65547 1.46793 9.39278 1.5962C9.09249 1.74284 8.85209 2.15996 8.37129 2.99419Z" fill="#A3D8B5"/>
<path d="M19.5939 17.5H20.6932C21.7497 17.5 22.278 17.5 22.5692 17.2354C22.8229 17.0048 22.9799 16.6525 22.9989 16.271C23.0206 15.8332 22.7276 15.3052 22.1415 14.2492L18.8664 8.34803C18.3821 7.47546 18.14 7.03918 17.8348 6.88714C17.568 6.75423 17.2681 6.75423 17.0013 6.88714C16.6961 7.03918 16.454 7.47546 15.9697 8.34802L15.1601 9.80685M19.5939 17.5L11.2337 2.9942C10.7529 2.15996 10.5125 1.74284 10.2122 1.5962C9.94948 1.46793 9.65547 1.46793 9.39278 1.5962C9.09249 1.74284 8.85209 2.15996 8.37129 2.99419L1.90208 14.2188C1.28954 15.2817 0.983268 15.8131 1.0007 16.255C1.01589 16.6399 1.17171 16.9971 1.42651 17.2312C1.71909 17.5 2.25715 17.5 3.33327 17.5H19.5939Z" stroke="#B1A7A7" stroke-width="2" stroke-linecap="round" stroke-linejoin="round"/>
</g>
</g>
</svg>
