<svg width="20" height="19" viewBox="0 0 20 19" fill="none" xmlns="http://www.w3.org/2000/svg">
<g id="Vector">
<g id="Vector_2">
<path d="M8 14C8 15.933 6.433 17.5 4.5 17.5C2.567 17.5 1 15.933 1 14C1 12.067 2.567 10.5 4.5 10.5C6.433 10.5 8 12.067 8 14Z" fill="#E1F0F7"/>
<path d="M19 14C19 15.933 17.433 17.5 15.5 17.5C13.567 17.5 12 15.933 12 14C12 12.067 13.567 10.5 15.5 10.5C17.433 10.5 19 12.067 19 14Z" fill="#E1F0F7"/>
<path d="M15.5 14L13 6.5M13 6.5L4.5 14M13 6.5V1.5H9M7 11.5L5 6H1M8 14C8 15.933 6.433 17.5 4.5 17.5C2.567 17.5 1 15.933 1 14C1 12.067 2.567 10.5 4.5 10.5C6.433 10.5 8 12.067 8 14ZM19 14C19 15.933 17.433 17.5 15.5 17.5C13.567 17.5 12 15.933 12 14C12 12.067 13.567 10.5 15.5 10.5C17.433 10.5 19 12.067 19 14Z" stroke="current" stroke-width="2" stroke-linecap="round" stroke-linejoin="round"/>
</g>
</g>
</svg>
