<svg width="12" height="19" viewBox="0 0 12 19" fill="none" xmlns="http://www.w3.org/2000/svg">
<g id="Icon">
<path id="Icon_2" d="M3.85714 14.7H8.14286M2.14286 1.5H9.85714C10.2572 1.5 10.4572 1.5 10.61 1.58719C10.7444 1.66389 10.8537 1.78628 10.9221 1.93681C11 2.10794 11 2.33196 11 2.78V4.43961C11 4.83096 11 5.02663 10.9605 5.21077C10.9255 5.37403 10.8678 5.5301 10.7895 5.67326C10.7011 5.83472 10.5776 5.97308 10.3305 6.24981L8.23669 8.5949C7.95382 8.91172 7.81239 9.07012 7.7594 9.25279C7.71278 9.41346 7.71278 9.58654 7.7594 9.74721C7.81239 9.92988 7.95382 10.0883 8.23669 10.4051L10.3305 12.7502C10.5776 13.0269 10.7011 13.1653 10.7895 13.3267C10.8678 13.4699 10.9255 13.626 10.9605 13.7892C11 13.9734 11 14.169 11 14.5604V16.22C11 16.668 11 16.8921 10.9221 17.0632C10.8537 17.2137 10.7444 17.3361 10.61 17.4128C10.4572 17.5 10.2572 17.5 9.85714 17.5H2.14286C1.74282 17.5 1.5428 17.5 1.39001 17.4128C1.25561 17.3361 1.14633 17.2137 1.07785 17.0632C1 16.8921 1 16.668 1 16.22V14.5604C1 14.169 1 13.9734 1.03947 13.7892C1.07447 13.626 1.13219 13.4699 1.21051 13.3267C1.29886 13.1653 1.4224 13.0269 1.66947 12.7502L3.76331 10.4051C4.04618 10.0883 4.18761 9.92988 4.2406 9.74721C4.28721 9.58654 4.28721 9.41346 4.2406 9.25279C4.18761 9.07012 4.04617 8.91171 3.76331 8.5949L1.66947 6.24981C1.4224 5.97309 1.29886 5.83472 1.21051 5.67326C1.13219 5.5301 1.07447 5.37403 1.03947 5.21077C1 5.02663 1 4.83096 1 4.43961V2.78C1 2.33196 1 2.10794 1.07785 1.93681C1.14633 1.78628 1.25561 1.66389 1.39001 1.58719C1.5428 1.5 1.74282 1.5 2.14286 1.5Z" stroke="current" stroke-width="2" stroke-linecap="round" stroke-linejoin="round"/>
</g>
</svg>
