<svg width="22" height="19" viewBox="0 0 22 19" fill="none" xmlns="http://www.w3.org/2000/svg">
<g id="Icon">
<path id="Icon_2" d="M1 2.28049C1.6 2.67073 2.2 3.06098 3.5 3.06098C6 3.06098 6 1.5 8.5 1.5C9.8 1.5 10.4 1.89024 11 2.28049C11.6 2.67073 12.2 3.06098 13.5 3.06098C16 3.06098 16 1.5 18.5 1.5C19.8 1.5 20.4 1.89024 21 2.28049M1 11.6463C1.6 12.0366 2.2 12.4268 3.5 12.4268C6 12.4268 6 10.8659 8.5 10.8659C9.8 10.8659 10.4 11.2561 11 11.6463C11.6 12.0366 12.2 12.4268 13.5 12.4268C16 12.4268 16 10.8659 18.5 10.8659C19.8 10.8659 20.4 11.2561 21 11.6463M1 6.96341C1.6 7.35366 2.2 7.7439 3.5 7.7439C6 7.7439 6 6.18293 8.5 6.18293C9.8 6.18293 10.4 6.57317 11 6.96341C11.6 7.35366 12.2 7.7439 13.5 7.7439C16 7.7439 16 6.18293 18.5 6.18293C19.8 6.18293 20.4 6.57317 21 6.96341M1 16.7195C1.6 17.1098 2.2 17.5 3.5 17.5C6 17.5 6 15.939 8.5 15.939C9.8 15.939 10.4 16.3293 11 16.7195C11.6 17.1098 12.2 17.5 13.5 17.5C16 17.5 16 15.939 18.5 15.939C19.8 15.939 20.4 16.3293 21 16.7195" stroke="#B1A7A7" stroke-width="2" stroke-linecap="round" stroke-linejoin="round"/>
</g>
</svg>
