<svg width="18" height="19" viewBox="0 0 18 19" fill="none" xmlns="http://www.w3.org/2000/svg">
<g id="Icon">
<g id="Icon_2">
<path d="M1 13.5C1 12.2727 1.99492 11.2778 3.22222 11.2778C4.44952 11.2778 5.44444 12.2727 5.44444 13.5V15.2778C5.44444 16.5051 4.44952 17.5 3.22222 17.5C1.99492 17.5 1 16.5051 1 15.2778V13.5Z" fill="#FFDCE2"/>
<path d="M12.5556 13.5C12.5556 12.2727 13.5505 11.2778 14.7778 11.2778C16.0051 11.2778 17 12.2727 17 13.5V15.2778C17 16.5051 16.0051 17.5 14.7778 17.5C13.5505 17.5 12.5556 16.5051 12.5556 15.2778V13.5Z" fill="#FFDCE2"/>
<path d="M17 14.8333V9.5C17 5.08172 13.4183 1.5 9 1.5C4.58172 1.5 1 5.08172 1 9.5V14.8333M3.22222 17.5C1.99492 17.5 1 16.5051 1 15.2778V13.5C1 12.2727 1.99492 11.2778 3.22222 11.2778C4.44952 11.2778 5.44444 12.2727 5.44444 13.5V15.2778C5.44444 16.5051 4.44952 17.5 3.22222 17.5ZM14.7778 17.5C13.5505 17.5 12.5556 16.5051 12.5556 15.2778V13.5C12.5556 12.2727 13.5505 11.2778 14.7778 11.2778C16.0051 11.2778 17 12.2727 17 13.5V15.2778C17 16.5051 16.0051 17.5 14.7778 17.5Z" stroke="#B1A7A7" stroke-width="2" stroke-linecap="round" stroke-linejoin="round"/>
</g>
</g>
</svg>
