<svg width="22" height="19" viewBox="0 0 22 19" fill="none" xmlns="http://www.w3.org/2000/svg">
<g id="Group 34242">
<path id="Vector 203" d="M13.5 12.5L11 11L10.5 13V17.5H19.5V16.5L16 10L13.5 12.5Z" fill="#A3D8B5"/>
<g id="Icon">
<path d="M7.60833 1.5H5.225C4.19824 1.5 3.68486 1.5 3.29268 1.69377C2.94772 1.86421 2.66726 2.13617 2.49149 2.47068C2.29167 2.85097 2.29167 3.3488 2.29167 4.34444V17.5H10.5417V4.34444C10.5417 3.3488 10.5417 2.85097 10.3418 2.47068C10.1661 2.13617 9.88561 1.86421 9.54065 1.69377C9.14848 1.5 8.6351 1.5 7.60833 1.5Z" fill="#D9D9D9"/>
<path d="M2.29167 17.5V4.34444C2.29167 3.3488 2.29167 2.85097 2.49149 2.47068C2.66726 2.13617 2.94772 1.86421 3.29268 1.69377C3.68486 1.5 4.19824 1.5 5.225 1.5H7.60833C8.6351 1.5 9.14848 1.5 9.54065 1.69377C9.88561 1.86421 10.1661 2.13617 10.3418 2.47068C10.5417 2.85097 10.5417 3.3488 10.5417 4.34444V17.5H20.1667L15.5833 9.5L13.2917 12.6111L11.4583 11.2778L11 11.5M21 17.5H1M5.5 5.05556H7.33333M5.5 8.61111H7.33333M5.5 12.1667H7.33333" stroke="#B1A7A7" stroke-width="2" stroke-linecap="round" stroke-linejoin="round"/>
</g>
</g>
</svg>
