<svg width="20" height="19" viewBox="0 0 20 19" fill="none" xmlns="http://www.w3.org/2000/svg">
<g id="Vector">
<g id="Vector_2">
<path d="M1.57337 15.3657L8.78577 2.74048C9.18438 2.04272 9.38369 1.69383 9.64372 1.57666C9.87053 1.47445 10.1295 1.47445 10.3563 1.57666C10.6163 1.69383 10.8156 2.04271 11.2142 2.74048L18.4266 15.3657C18.8267 16.066 19.0267 16.4161 18.9971 16.7035C18.9714 16.9541 18.8418 17.1819 18.6406 17.3301C18.4101 17.5 18.0108 17.5 17.2124 17.5H2.7876C1.98916 17.5 1.58994 17.5 1.35935 17.3301C1.15823 17.1819 1.02865 16.9541 1.00286 16.7035C0.9733 16.4161 1.17332 16.066 1.57337 15.3657Z" fill="#FAD0B9"/>
<path d="M10 1.5V17.4963M8.78577 2.74048L1.57337 15.3657C1.17332 16.066 0.9733 16.4161 1.00286 16.7035C1.02865 16.9541 1.15823 17.1819 1.35935 17.3301C1.58994 17.5 1.98916 17.5 2.7876 17.5H17.2124C18.0108 17.5 18.4101 17.5 18.6406 17.3301C18.8418 17.1819 18.9714 16.9541 18.9971 16.7035C19.0267 16.4161 18.8267 16.066 18.4266 15.3657L11.2142 2.74048C10.8156 2.04271 10.6163 1.69383 10.3563 1.57666C10.1295 1.47445 9.87053 1.47445 9.64372 1.57666C9.38369 1.69383 9.18438 2.04272 8.78577 2.74048Z" stroke="#B1A7A7" stroke-width="2"/>
</g>
</g>
</svg>
