<svg width="18" height="19" viewBox="0 0 18 19" fill="none" xmlns="http://www.w3.org/2000/svg">
<g id="Icon">
<g id="Icon_2">
<path d="M13.8 1.5L14.2942 2.48847C14.5066 2.91325 14.6128 3.12564 14.7547 3.30969C14.8806 3.47301 15.027 3.61942 15.1903 3.74531C15.3744 3.88718 15.5868 3.99338 16.0115 4.20577L17 4.7L16.0115 5.19423C15.5868 5.40662 15.3744 5.51282 15.1903 5.65469C15.027 5.78058 14.8806 5.92699 14.7547 6.09031C14.6128 6.27436 14.5066 6.48675 14.2942 6.91153L13.8 7.9L13.3058 6.91153C13.0934 6.48675 12.9872 6.27436 12.8453 6.09031C12.7194 5.92699 12.573 5.78058 12.4097 5.65469C12.2256 5.51282 12.0132 5.40662 11.5885 5.19423L10.6 4.7L11.5885 4.20577C12.0132 3.99338 12.2256 3.88718 12.4097 3.74531C12.573 3.61942 12.7194 3.47301 12.8453 3.30969C12.9872 3.12564 13.0934 2.91325 13.3058 2.48847L13.8 1.5Z" fill="#FEFFC6"/>
<path d="M16.2 10.6114C15.1512 12.4512 13.1716 13.6916 10.9024 13.6916C7.53687 13.6916 4.8086 10.9633 4.8086 7.59786C4.8086 5.32843 6.04919 3.34875 7.8892 2.3C4.02383 2.6665 1 5.92154 1 9.88283C1 14.0897 4.41034 17.5 8.6172 17.5C12.5783 17.5 15.8332 14.4765 16.2 10.6114Z" fill="#FEFFC6"/>
<path d="M13.8 1.5L14.2942 2.48847C14.5066 2.91325 14.6128 3.12564 14.7547 3.30969C14.8806 3.47301 15.027 3.61942 15.1903 3.74531C15.3744 3.88718 15.5868 3.99338 16.0115 4.20577L17 4.7L16.0115 5.19423C15.5868 5.40662 15.3744 5.51282 15.1903 5.65469C15.027 5.78058 14.8806 5.92699 14.7547 6.09031C14.6128 6.27436 14.5066 6.48675 14.2942 6.91153L13.8 7.9L13.3058 6.91153C13.0934 6.48675 12.9872 6.27436 12.8453 6.09031C12.7194 5.92699 12.573 5.78058 12.4097 5.65469C12.2256 5.51282 12.0132 5.40662 11.5885 5.19423L10.6 4.7L11.5885 4.20577C12.0132 3.99338 12.2256 3.88718 12.4097 3.74531C12.573 3.61942 12.7194 3.47301 12.8453 3.30969C12.9872 3.12564 13.0934 2.91325 13.3058 2.48847L13.8 1.5Z" stroke="current" stroke-width="2" stroke-linecap="round" stroke-linejoin="round"/>
<path d="M16.2 10.6114C15.1512 12.4512 13.1716 13.6916 10.9024 13.6916C7.53687 13.6916 4.8086 10.9633 4.8086 7.59786C4.8086 5.32843 6.04919 3.34875 7.8892 2.3C4.02383 2.6665 1 5.92154 1 9.88283C1 14.0897 4.41034 17.5 8.6172 17.5C12.5783 17.5 15.8332 14.4765 16.2 10.6114Z" stroke="current" stroke-width="2" stroke-linecap="round" stroke-linejoin="round"/>
</g>
</g>
</svg>
