<svg width="14" height="19" viewBox="0 0 14 19" fill="none" xmlns="http://www.w3.org/2000/svg">
<g id="Union">
<path id="Union_2" d="M8.23078 4.1596C9.05658 3.97855 9.6713 3.21189 9.6713 2.29998C9.6713 1.25531 8.86358 0.4 7.85706 0.4C6.85055 0.4 6.04283 1.25531 6.04283 2.29998C6.04283 2.73045 6.17964 3.12811 6.41072 3.44719L6.20761 4.58463L2.8459 6.26884C2.6797 6.35211 2.54057 6.48346 2.44456 6.64655L1.042 9.02888C0.766916 9.49613 0.902942 10.1107 1.3521 10.4023C1.80434 10.6958 2.39579 10.5468 2.67247 10.0768L3.92753 7.94502L5.77262 7.02063L5.20195 10.2165C5.20023 10.2261 5.19865 10.2357 5.1972 10.2454L4.56343 14.4802L2.06875 16.8615C1.6796 17.233 1.65146 17.8629 2.00454 18.2707C2.36005 18.6813 2.96803 18.7122 3.35996 18.3381L6.10274 15.7199C6.26377 15.5662 6.36924 15.3601 6.40276 15.1362L6.67916 13.2893L6.95404 13.7704L7.77811 17.8084C7.88762 18.345 8.39404 18.6948 8.91572 18.5774C9.43564 18.4604 9.7595 17.9266 9.65026 17.3913L8.79314 13.1913C8.77128 13.0842 8.7327 12.9814 8.67886 12.8872L7.15006 10.2118L7.61103 7.63025L9.14276 9.68996C9.24568 9.82835 9.38191 9.93643 9.53813 10.0028L11.7822 10.9557C12.2763 11.1655 12.834 10.913 13.0306 10.4027C13.2263 9.89453 12.9944 9.31156 12.5031 9.10292L10.4968 8.25099L8.08042 5.00164L8.23078 4.1596Z" fill="#B1A7A7" stroke="#B1A7A7" stroke-width="0.2"/>
</g>
</svg>
