<svg width="18" height="19" viewBox="0 0 18 19" fill="none" xmlns="http://www.w3.org/2000/svg">
<g id="Icon">
<g id="Icon_2">
<path d="M12.999 2.57304C9.54874 0.581037 5.23136 1.45144 2.79665 4.44744C2.55901 4.73986 2.44019 4.88607 2.40563 5.09556C2.37813 5.26224 2.41887 5.48312 2.50402 5.62902C2.61105 5.81239 2.80074 5.92191 3.18013 6.14095L14.8185 12.8604C15.1979 13.0794 15.3876 13.1889 15.5999 13.1899C15.7689 13.1907 15.9805 13.1156 16.1111 13.0084C16.2753 12.8738 16.3425 12.6977 16.4769 12.3457C17.8542 8.73922 16.4493 4.56505 12.999 2.57304Z" fill="#DDE9FF"/>
<path d="M4.39972 17.4674L8.99933 9.50067M12.999 2.57304C9.54874 0.581037 5.23136 1.45144 2.79665 4.44744C2.55901 4.73986 2.44019 4.88607 2.40563 5.09556C2.37813 5.26224 2.41887 5.48312 2.50402 5.62902C2.61105 5.81239 2.80074 5.92191 3.18013 6.14095L14.8185 12.8604C15.1979 13.0794 15.3876 13.1889 15.5999 13.1899C15.7689 13.1907 15.9805 13.1156 16.1111 13.0084C16.2753 12.8738 16.3425 12.6977 16.4769 12.3457C17.8542 8.73922 16.4493 4.56505 12.999 2.57304ZM12.999 2.57304C11.4686 1.68946 8.43724 4.07478 6.22828 7.9008M12.999 2.57304C14.5294 3.45662 13.9793 7.27451 11.7704 11.1005M16.9987 17.5H1" stroke="current" stroke-width="2" stroke-linecap="round" stroke-linejoin="round"/>
</g>
</g>
</svg>
