<svg xmlns="http://www.w3.org/2000/svg" width="18" height="19" viewBox="0 0 18 19" fill="none">
  <path d="M10.6622 4.6746C11.4408 4.82584 12.1565 5.20496 12.7174 5.76344C13.2784 6.32191 13.6592 7.03433 13.8112 7.80952M10.6622 1.5C12.2799 1.67892 13.7885 2.40014 14.9402 3.54524C16.0919 4.69035 16.8182 6.19127 17 7.80158M7.61442 10.9151C6.65651 9.96149 5.90013 8.88321 5.34527 7.73271C5.29754 7.63375 5.27368 7.58427 5.25535 7.52166C5.19019 7.29916 5.23699 7.02594 5.37253 6.8375C5.41067 6.78448 5.45623 6.73912 5.54736 6.64839C5.82607 6.37093 5.96543 6.23219 6.05654 6.09269C6.40013 5.56658 6.40013 4.88835 6.05654 4.36224C5.96543 4.22274 5.82607 4.08401 5.54736 3.80654L5.39201 3.65188C4.96834 3.2301 4.7565 3.01921 4.52899 2.90465C4.07653 2.67682 3.54219 2.67682 3.08972 2.90465C2.86221 3.01921 2.65038 3.2301 2.2267 3.65188L2.10104 3.77699C1.67881 4.19732 1.4677 4.40749 1.30647 4.69323C1.12756 5.0103 0.99892 5.50275 1.00001 5.86642C1.00099 6.19416 1.06485 6.41814 1.19256 6.86611C1.87894 9.27357 3.17399 11.5453 5.07771 13.4405C6.98143 15.3357 9.26334 16.625 11.6816 17.3083C12.1316 17.4354 12.3566 17.499 12.6858 17.5C13.0511 17.5011 13.5457 17.373 13.8642 17.1949C14.1512 17.0344 14.3624 16.8242 14.7846 16.4039L14.9102 16.2788C15.3339 15.857 15.5458 15.6461 15.6608 15.4196C15.8897 14.9692 15.8897 14.4372 15.6608 13.9868C15.5458 13.7603 15.3339 13.5494 14.9102 13.1276L14.7549 12.9729C14.4762 12.6955 14.3368 12.5568 14.1967 12.466C13.6682 12.124 12.987 12.124 12.4585 12.466C12.3184 12.5568 12.179 12.6955 11.9003 12.9729C11.8092 13.0637 11.7636 13.109 11.7103 13.147C11.5211 13.2819 11.2466 13.3285 11.0231 13.2637C10.9602 13.2454 10.9105 13.2217 10.8111 13.1741C9.65546 12.6218 8.57233 11.8688 7.61442 10.9151Z" stroke="#B1A7A7" stroke-width="2" stroke-linecap="round" stroke-linejoin="round"/>
</svg>